<svg width="36" height="35" viewBox="0 0 36 35" fill="none" xmlns="http://www.w3.org/2000/svg">
<path d="M29.845 23.4014C29.8106 23.45 29.6798 23.7897 29.5489 24.1501C29.425 24.5106 29.1703 25.1207 28.9775 25.502C28.6884 26.0704 28.5231 26.2992 28.0343 26.7914C27.518 27.3113 27.3596 27.4292 26.6574 27.7689C26.2236 27.9838 25.6109 28.2403 25.3011 28.3443C24.7021 28.5384 24.5231 28.6701 24.6333 28.8434C24.6677 28.8988 25.1083 29.0999 25.6178 29.2871C27.8622 30.1051 28.8467 31.1588 29.6178 33.5436C29.9069 34.4517 30.0997 34.4309 30.4371 33.4604C31.2563 31.041 32.2615 30.0219 34.6367 29.19C34.9947 29.0583 35.3183 28.9127 35.3527 28.8503C35.4698 28.677 35.3527 28.5314 35.0429 28.4482C34.4164 28.2749 33.2047 27.7273 32.6608 27.3599C31.6832 26.7082 31.0016 25.6961 30.4508 24.0878C30.2512 23.4985 30.1686 23.346 30.0584 23.3321C29.9758 23.3183 29.8863 23.3529 29.845 23.4014Z" fill="#FF0000"/>
<path d="M20.3098 1.35338C20.3098 1.31871 21.5559 1.29792 23.0843 1.29792C25.5559 1.29792 25.9139 1.31178 26.3408 1.4227C27.6282 1.76932 28.654 2.62894 29.1911 3.82825C29.5422 4.59775 29.5697 4.85424 29.5697 6.98249V10.3447L29.6386 20.2165L29.7969 20.3759C30.0241 20.6116 30.4647 20.5908 30.6781 20.3412L30.8434 20.1471V12.5076C30.8434 4.29965 30.8503 4.57001 30.4923 3.58561C29.9139 2.00502 28.4544 0.674001 26.7401 0.174867L26.1962 0.0154226L15.6282 0.0015562C6.70568 -0.0053762 4.97763 0.00848952 4.51635 0.0916784C3.49053 0.278853 2.51979 0.784918 1.74182 1.53362C0.908778 2.32391 0.406196 3.1766 0.130809 4.26499C0.00688468 4.77106 0 5.1662 0 15.544C0 26.0605 0 26.317 0.137694 26.8508C0.578313 28.6116 1.8864 30.1021 3.5525 30.7329C4.56454 31.1142 4.33047 31.1073 13.7005 31.1073H22.3614L22.5749 30.927C22.926 30.6359 22.8571 30.109 22.4441 29.8941C22.2719 29.804 21.1704 29.7901 13.5835 29.7901C6.06541 29.7901 4.86059 29.7763 4.50947 29.6861C2.92599 29.284 1.67298 27.9669 1.3494 26.3794C1.25301 25.908 1.23924 24.9028 1.23924 18.0743V10.3101L1.27367 8.95823L1.25301 7.08648C1.23236 4.97903 1.28055 4.58388 1.67986 3.75199C1.92771 3.23206 2.43029 2.54575 2.56799 2.54575C2.56799 2.46256 4.11016 1.50589 4.52324 1.40884C4.82616 1.33258 5.53528 1.30485 7.40103 1.30485L9.87952 1.29792H11.8047C11.8047 1.29792 13.3219 1.29792 15.1256 1.29792H18.4165L18.4716 1.35338H20.3098Z" fill="#FF0000"/>
<path d="M28.9785 22.0048C28.5723 21.9573 20.8679 14.0268 20.8679 14.0268L12.71 22.1847L8.63105 18.1057L1.63158 25.1052C1 25.5 0.765312 25.043 1 25.5L0.0232233 25.1052H0L1 23.5L1.63158 22.8047L8.63105 15.7889L12.71 19.8678L20.8679 11.7099L29.3684 20.2105L29.6513 20.5029V20.2105L30.8438 20.1484C30.8438 20.1484 30.9191 21.186 30.5549 21.6691C30.1907 22.1523 29.3848 22.0523 28.9785 22.0048Z" fill="#FF0000"/>
<path d="M10.623 7.75548C10.623 9.70223 9.04489 11.2804 7.09814 11.2804C5.15139 11.2804 3.57324 9.70223 3.57324 7.75548C3.57324 5.80873 5.15139 4.23057 7.09814 4.23057C9.04489 4.23057 10.623 5.80873 10.623 7.75548ZM4.62793 7.75548C4.62793 9.11974 5.73388 10.2257 7.09814 10.2257C8.46241 10.2257 9.56836 9.11974 9.56836 7.75548C9.56836 6.39122 8.46241 5.28526 7.09814 5.28526C5.73388 5.28526 4.62793 6.39122 4.62793 7.75548Z" fill="#FF0000"/>
</svg>
