<svg width="39" height="39" viewBox="0 0 39 39" fill="none" xmlns="http://www.w3.org/2000/svg">
<path d="M15.4375 22.3438C15.4375 23.92 16.6563 25.1875 18.1513 25.1875H21.2062C22.5062 25.1875 23.5625 24.0825 23.5625 22.7013C23.5625 21.2225 22.9125 20.6863 21.9538 20.345L17.0625 18.6388C16.1038 18.2975 15.4538 17.7775 15.4538 16.2825C15.4538 14.9175 16.51 13.7963 17.81 13.7963H20.865C22.36 13.7963 23.5788 15.0638 23.5788 16.64" stroke="#FF0000" stroke-width="2" stroke-linecap="round" stroke-linejoin="round"/>
<path d="M19.5 12.1875V26.8125" stroke="#FF0000" stroke-width="2" stroke-linecap="round" stroke-linejoin="round"/>
<path d="M35.75 19.5C35.75 28.47 28.47 35.75 19.5 35.75C10.53 35.75 3.25 28.47 3.25 19.5C3.25 10.53 10.53 3.25 19.5 3.25" stroke="#FF0000" stroke-width="2" stroke-linecap="round" stroke-linejoin="round"/>
<path d="M27.625 4.875V11.375H34.125" stroke="#FF0000" stroke-width="2" stroke-linecap="round" stroke-linejoin="round"/>
<path d="M35.75 3.25L27.625 11.375" stroke="#FF0000" stroke-width="2" stroke-linecap="round" stroke-linejoin="round"/>
</svg>
