<svg width="34" height="33" viewBox="0 0 34 33" fill="none" xmlns="http://www.w3.org/2000/svg">
<path d="M4.51635 0.091692C3.49053 0.278866 2.51979 0.784933 1.74182 1.53363C0.908778 2.32393 0.406196 3.17661 0.130809 4.265C0.00688468 4.77107 0 5.16622 0 15.544C0 26.0605 0 26.317 0.137694 26.8508C0.578313 28.6116 1.8864 30.1021 3.5525 30.7329C4.56454 31.1142 4.33046 31.1073 13.7005 31.1073H22.3614L22.5749 30.927C22.926 30.6359 22.8571 30.109 22.4441 29.8941C22.2719 29.804 21.1704 29.7901 13.5835 29.7901C6.0654 29.7901 4.86059 29.7763 4.50947 29.6861C2.92599 29.2841 1.67298 27.9669 1.3494 26.3794C1.25301 25.908 1.23924 24.9028 1.23924 18.0744V10.3101L15.4079 10.3239L29.5697 10.3447L29.6041 15.2806L29.6386 20.2165L29.7969 20.3759C30.0241 20.6116 30.4647 20.5908 30.6781 20.3413L30.8434 20.1472V12.5076C30.8434 4.29967 30.8503 4.57003 30.4923 3.58563C29.9139 2.00504 28.4544 0.674013 26.7401 0.174881L26.1962 0.0154362L15.6282 0.00156975C6.70568 -0.00536156 4.97762 0.00850296 4.51635 0.091692ZM13.6454 5.08996C15.7246 7.18355 17.4182 8.90972 17.4182 8.93745C17.4182 8.97211 15.938 8.99291 14.1343 8.99291H10.8434L7.28399 5.40885C5.32186 3.43312 3.71773 1.79706 3.71773 1.76933C3.71773 1.68615 4.11016 1.5059 4.52324 1.40885C4.82616 1.33259 5.53528 1.30486 7.40103 1.30486L9.87952 1.29793L13.6454 5.08996ZM22.1824 5.08996C24.2616 7.18355 25.9552 8.90972 25.9552 8.93745C25.9552 8.97211 24.475 8.99291 22.6713 8.99291H19.3804L15.6145 5.20088C13.5353 3.10729 11.8417 1.38112 11.8417 1.35339C11.8417 1.31873 13.3219 1.29793 15.1256 1.29793H18.4165L22.1824 5.08996ZM26.3408 1.42271C27.6282 1.76933 28.654 2.62896 29.191 3.82826C29.5422 4.59776 29.5697 4.85426 29.5697 6.98251V8.95824L28.7091 8.97904L27.8554 8.99984L24.0826 5.20088C22.0103 3.11422 20.3098 1.38112 20.3098 1.35339C20.3098 1.31873 21.5559 1.29793 23.0843 1.29793C25.5559 1.29793 25.9139 1.3118 26.3408 1.42271ZM5.76248 5.67921C7.47676 7.40538 8.88124 8.86119 8.88124 8.90972C8.88124 8.97904 8.10327 8.99291 5.08089 8.97904L1.27367 8.95824L1.25301 7.08649C1.23236 4.97904 1.28055 4.58389 1.67986 3.752C1.92771 3.23207 2.43029 2.54576 2.56799 2.54576C2.60929 2.54576 4.05508 3.95998 5.76248 5.67921Z" fill="#FF0000"/>
<path d="M12.1859 14.6012C12.1446 14.6914 12.1171 16.2789 12.1171 19.2737C12.1171 23.5787 12.124 23.8144 12.241 23.9184C12.3098 23.9877 12.42 24.0363 12.4888 24.0363C12.5852 24.0363 20.1102 19.7174 20.3649 19.5163C20.4062 19.4747 20.4475 19.3569 20.4475 19.246C20.4475 19.0033 20.4888 19.0311 18.3477 17.7971C17.4045 17.2494 15.8554 16.3482 14.9054 15.7936C13.9622 15.246 13.0603 14.7191 12.9088 14.629C12.5646 14.4349 12.2823 14.421 12.1859 14.6012Z" fill="#FF0000"/>
<path d="M28.1101 21.8318C28.0757 21.8803 27.9449 22.22 27.8141 22.5805C27.6902 22.9409 27.4354 23.551 27.2427 23.9323C26.9535 24.5007 26.7883 24.7295 26.2995 25.2217C25.7831 25.7416 25.6248 25.8595 24.9225 26.1992C24.4888 26.4141 23.876 26.6706 23.5662 26.7746C22.9673 26.9687 22.7883 27.1004 22.8984 27.2737C22.9328 27.3292 23.3735 27.5302 23.8829 27.7174C26.1273 28.5354 27.1118 29.5891 27.8829 31.9739C28.1721 32.882 28.3649 32.8612 28.7022 31.8907C29.5215 29.4713 30.5266 28.4522 32.9019 27.6203C33.2599 27.4886 33.5834 27.343 33.6179 27.2806C33.7349 27.1073 33.6179 26.9617 33.3081 26.8786C32.6816 26.7052 31.4698 26.1576 30.926 25.7902C29.9483 25.1385 29.2668 24.1264 28.716 22.5181C28.5163 21.9288 28.4337 21.7763 28.3235 21.7624C28.2409 21.7486 28.1514 21.7832 28.1101 21.8318Z" fill="#FF0000"/>
</svg>
